<svg width="24" height="24" viewBox="0 0 24 24" fill="none" xmlns="http://www.w3.org/2000/svg">
<circle cx="12" cy="12" r="12" fill="#D9D9D9"/>
<path d="M12.04 14.58H10.78C10.78 13.5 11.188 12.552 12.004 11.736C12.1 11.64 12.292 11.454 12.58 11.178C12.88 10.902 13.096 10.692 13.228 10.548C13.36 10.404 13.522 10.212 13.714 9.972C13.906 9.72 14.038 9.48 14.11 9.252C14.194 9.012 14.236 8.766 14.236 8.514C14.236 7.842 14.002 7.326 13.534 6.966C13.078 6.594 12.466 6.408 11.698 6.408C10.222 6.408 9.31 7.014 8.962 8.226L7.9 7.632C8.176 6.852 8.65 6.252 9.322 5.832C10.006 5.4 10.798 5.184 11.698 5.184C12.754 5.184 13.648 5.478 14.38 6.066C15.124 6.642 15.496 7.458 15.496 8.514C15.496 9.438 15.088 10.308 14.272 11.124C14.224 11.16 14.08 11.292 13.84 11.52C13.612 11.736 13.462 11.886 13.39 11.97C13.318 12.042 13.186 12.18 12.994 12.384C12.802 12.588 12.67 12.756 12.598 12.888C12.526 13.02 12.436 13.188 12.328 13.392C12.22 13.584 12.142 13.782 12.094 13.986C12.058 14.178 12.04 14.376 12.04 14.58ZM12.4 17.19C12.4 17.466 12.304 17.7 12.112 17.892C11.92 18.084 11.686 18.18 11.41 18.18C11.134 18.18 10.9 18.084 10.708 17.892C10.516 17.7 10.42 17.466 10.42 17.19C10.42 16.914 10.516 16.68 10.708 16.488C10.9 16.296 11.134 16.2 11.41 16.2C11.686 16.2 11.92 16.296 12.112 16.488C12.304 16.68 12.4 16.914 12.4 17.19Z" fill="white"/>
</svg>
