<svg width="29" height="22" viewBox="0 0 29 22" fill="none" xmlns="http://www.w3.org/2000/svg">
<path d="M27.8121 2.66538H26.5646V1.45818C26.5646 1.1878 26.3667 0.960276 26.1042 0.928717L18.8764 0.0605656C17.2555 -0.134189 15.633 0.143017 14.1666 0.862472C12.7001 0.143017 11.0779 -0.13426 9.45679 0.0605656L2.22901 0.928717C1.96651 0.960276 1.76858 1.1878 1.76858 1.45818V2.66538H0.521234C0.233305 2.66538 0 2.90406 0 3.19846V20.6434C0 20.9378 0.233305 21.1765 0.521234 21.1765H27.8121C28.1 21.1765 28.3333 20.9378 28.3333 20.6434V3.19846C28.3333 2.90406 28.1 2.66538 27.8121 2.66538ZM18.7548 1.11949L25.5221 1.93234V17.7869L18.8764 16.9887C17.4452 16.8167 16.0129 17.0133 14.6878 17.5568V1.79033C15.9576 1.18368 17.357 0.951604 18.7548 1.11949ZM9.57848 1.11949C10.9762 0.951533 12.3757 1.18368 13.6454 1.79033V17.5569C12.6319 17.1413 11.5558 16.9281 10.4653 16.9281C10.1302 16.9281 9.79344 16.9482 9.45686 16.9886L2.81112 17.7868V1.93234L9.57848 1.11949ZM27.2909 20.1103H1.04247V3.73155H1.76865V18.3862C1.76865 18.5385 1.83224 18.6834 1.94351 18.7845C2.05471 18.8857 2.20295 18.9334 2.3507 18.9157L9.57848 18.0475C11.0802 17.8671 12.5841 18.1479 13.9268 18.8595C14.0772 18.9393 14.256 18.9393 14.4064 18.8595C15.749 18.1479 17.2524 17.8671 18.7547 18.0475L25.9824 18.9157C26.0027 18.9181 26.023 18.9193 26.0432 18.9193C26.1702 18.9193 26.2937 18.8718 26.3896 18.7845C26.5009 18.6834 26.5645 18.5385 26.5645 18.3862V3.73155H27.2907V20.1103H27.2909Z" fill="#414143"/>
<path d="M15.8884 4.12164C16.8226 3.86207 17.7841 3.78907 18.7453 3.90443L24.172 4.55608C24.1927 4.55856 24.2132 4.55977 24.2335 4.55977C24.4942 4.55977 24.7194 4.36011 24.7505 4.08881C24.784 3.79639 24.5795 3.53155 24.2936 3.49722L18.8668 2.84557C17.7722 2.71415 16.6783 2.79738 15.6152 3.09286C15.3373 3.17005 15.1734 3.46296 15.2488 3.74706C15.3243 4.03116 15.6109 4.19876 15.8884 4.12164Z" fill="#414143"/>
<path d="M4.08317 4.56061C4.10346 4.56061 4.12403 4.5594 4.14468 4.55691L9.57093 3.90533C10.5309 3.79097 11.5035 3.86567 12.4279 4.12319C12.7056 4.20045 12.9922 4.03306 13.0678 3.74889C13.1435 3.46479 12.9796 3.17181 12.7018 3.09447C11.6493 2.80127 10.5431 2.71612 9.44973 2.84641L4.02298 3.49806C3.73714 3.53239 3.53254 3.79722 3.56611 4.08964C3.59731 4.36095 3.82248 4.56061 4.08317 4.56061Z" fill="#414143"/>
<path d="M15.8884 6.56741C16.8226 6.30784 17.7839 6.23484 18.7453 6.3502L24.172 7.00185C24.1927 7.00433 24.2132 7.00554 24.2335 7.00554C24.4942 7.00554 24.7194 6.80588 24.7505 6.53458C24.784 6.24216 24.5795 5.97732 24.2936 5.94299L18.8668 5.29134C17.7724 5.15999 16.6783 5.24315 15.6152 5.53862C15.3373 5.61582 15.1734 5.90873 15.2488 6.19283C15.3243 6.47686 15.6109 6.64461 15.8884 6.56741Z" fill="#414143"/>
<path d="M4.08317 7.00543C4.10346 7.00543 4.12403 7.00422 4.14468 7.00173L9.57093 6.35016C10.5303 6.23587 11.5035 6.3105 12.4279 6.56801C12.7056 6.64528 12.9922 6.47789 13.0678 6.19372C13.1435 5.90962 12.9796 5.61663 12.7018 5.5393C11.6492 5.2461 10.5426 5.16095 9.44973 5.29123L4.02298 5.94288C3.73714 5.97721 3.53254 6.24205 3.56611 6.53447C3.59731 6.80577 3.82248 7.00543 4.08317 7.00543Z" fill="#414143"/>
<path d="M15.8884 9.01271C16.8226 8.75313 17.7839 8.68014 18.7453 8.7955L24.172 9.44714C24.1927 9.44963 24.2132 9.45084 24.2335 9.45084C24.4942 9.45084 24.7194 9.25118 24.7505 8.97987C24.784 8.68746 24.5795 8.42262 24.2936 8.38829L18.8668 7.73664C17.7724 7.60529 16.6783 7.68852 15.6152 7.98392C15.3373 8.06112 15.1734 8.35403 15.2488 8.63813C15.3243 8.92223 15.6109 9.0899 15.8884 9.01271Z" fill="#414143"/>
<path d="M4.08317 9.45126C4.10346 9.45126 4.12403 9.45005 4.14468 9.44756L9.57093 8.79598C10.5302 8.68169 11.5035 8.75632 12.4279 9.01384C12.7056 9.09117 12.9922 8.92371 13.0678 8.63954C13.1435 8.35544 12.9796 8.06245 12.7018 7.98512C11.6493 7.69192 10.5427 7.60677 9.44973 7.73699L4.02298 8.38863C3.73714 8.42296 3.53254 8.6878 3.56611 8.98022C3.59731 9.2516 3.82248 9.45126 4.08317 9.45126Z" fill="#414143"/>
<path d="M15.8884 11.457C16.8225 11.1975 17.7838 11.1244 18.7453 11.2398L24.172 11.8915C24.1927 11.8939 24.2132 11.8952 24.2335 11.8952C24.4942 11.8952 24.7194 11.6955 24.7505 11.4242C24.784 11.1318 24.5795 10.8669 24.2936 10.8326L18.8668 10.181C17.7724 10.0497 16.6784 10.1328 15.6152 10.4282C15.3373 10.5054 15.1734 10.7983 15.2488 11.0824C15.3243 11.3665 15.6109 11.5343 15.8884 11.457Z" fill="#414143"/>
<path d="M4.08317 11.8961C4.10346 11.8961 4.12403 11.8948 4.14468 11.8924L9.57093 11.2408C10.53 11.1264 11.5033 11.2011 12.4279 11.4586C12.7056 11.5359 12.9922 11.3685 13.0678 11.0843C13.1435 10.8002 12.9796 10.5073 12.7018 10.4299C11.6493 10.1367 10.5424 10.0516 9.44973 10.1819L4.02298 10.8335C3.73714 10.8678 3.53254 11.1327 3.56611 11.4251C3.59731 11.6964 3.82248 11.8961 4.08317 11.8961Z" fill="#414143"/>
<path d="M24.2936 13.2784L18.8668 12.6268C17.7722 12.4954 16.6782 12.5787 15.6152 12.8741C15.3373 12.9513 15.1734 13.2442 15.2488 13.5283C15.3243 13.8124 15.6109 13.9802 15.8884 13.9029C16.8226 13.6434 17.7841 13.5704 18.7453 13.6857L24.172 14.3374C24.1927 14.3398 24.2132 14.341 24.2335 14.341C24.4942 14.341 24.7194 14.1414 24.7505 13.8701C24.784 13.5777 24.5795 13.3128 24.2936 13.2784Z" fill="#414143"/>
<path d="M4.08317 14.3404C4.10346 14.3404 4.12403 14.3392 4.14468 14.3367L9.57093 13.6851C10.5303 13.5708 11.5035 13.6455 12.4279 13.903C12.7056 13.9803 12.9922 13.8128 13.0678 13.5287C13.1435 13.2446 12.9796 12.9516 12.7018 12.8743C11.6492 12.5811 10.5426 12.4959 9.44973 12.6262L4.02298 13.2778C3.73714 13.3122 3.53254 13.577 3.56611 13.8694C3.59731 14.1407 3.82248 14.3404 4.08317 14.3404Z" fill="#414143"/>
</svg>
