<svg width="17" height="16" viewBox="0 0 17 16" fill="none" xmlns="http://www.w3.org/2000/svg">
<path d="M7.08386 0.279297C8.26326 0.279249 9.4192 0.608837 10.4212 1.23087C11.4233 1.85289 12.2315 2.7426 12.7547 3.79959C13.2779 4.85657 13.4953 6.03876 13.3824 7.21273C13.2694 8.38671 12.8306 9.50575 12.1154 10.4436L16.1168 14.4467C16.2681 14.5985 16.3559 14.8022 16.3625 15.0165C16.369 15.2307 16.2938 15.4394 16.152 15.6002C16.0103 15.7609 15.8126 15.8617 15.5992 15.882C15.3859 15.9024 15.1727 15.8407 15.0032 15.7096L14.9239 15.6396L10.9208 11.6382C10.1218 12.2474 9.18931 12.6575 8.20038 12.8348C7.21144 13.012 6.19451 12.9512 5.23374 12.6574C4.27297 12.3635 3.39598 11.8452 2.67534 11.1451C1.9547 10.445 1.41113 9.58342 1.0896 8.63156C0.768071 7.67971 0.677833 6.66497 0.826352 5.67131C0.974872 4.67765 1.35788 3.73365 1.94368 2.9174C2.52948 2.10116 3.30123 1.43615 4.19508 0.977403C5.08892 0.518652 6.07916 0.27935 7.08386 0.279297ZM7.08386 1.96659C5.85324 1.96659 4.67302 2.45545 3.80284 3.32563C2.93266 4.19581 2.4438 5.37603 2.4438 6.60665C2.4438 7.83727 2.93266 9.01749 3.80284 9.88767C4.67302 10.7578 5.85324 11.2467 7.08386 11.2467C8.31448 11.2467 9.4947 10.7578 10.3649 9.88767C11.2351 9.01749 11.7239 7.83727 11.7239 6.60665C11.7239 5.37603 11.2351 4.19581 10.3649 3.32563C9.4947 2.45545 8.31448 1.96659 7.08386 1.96659Z" fill="#0044DB"/>
</svg>
