<svg width="7" height="7" viewBox="0 0 7 7" fill="none" xmlns="http://www.w3.org/2000/svg">
<path d="M2.94981 0.202637C3.45753 0.202616 3.95515 0.344501 4.38652 0.61228C4.81789 0.880058 5.16583 1.26307 5.39107 1.71809C5.61632 2.17312 5.7099 2.68204 5.66127 3.18743C5.61264 3.69282 5.42372 4.17455 5.11584 4.57827L6.83842 6.30158C6.90355 6.36694 6.94137 6.45464 6.94418 6.54687C6.947 6.6391 6.91461 6.72894 6.85358 6.79815C6.79255 6.86736 6.70747 6.91075 6.61561 6.9195C6.52375 6.92825 6.43201 6.90171 6.35901 6.84526L6.32487 6.81512L4.60157 5.09254C4.25763 5.35479 3.85619 5.53138 3.43046 5.60767C3.00473 5.68397 2.56695 5.65779 2.15335 5.5313C1.73974 5.40481 1.36221 5.18165 1.05198 4.88028C0.741745 4.5789 0.507741 4.20799 0.369326 3.79822C0.230911 3.38846 0.192064 2.95162 0.256 2.52386C0.319937 2.09609 0.484818 1.68971 0.737001 1.33832C0.989183 0.986936 1.32142 0.700655 1.70621 0.503166C2.091 0.305677 2.51729 0.20266 2.94981 0.202637ZM2.94981 0.929004C2.42004 0.929004 1.91196 1.13946 1.53736 1.51406C1.16275 1.88867 0.952298 2.39674 0.952298 2.92651C0.952298 3.45629 1.16275 3.96436 1.53736 4.33897C1.91196 4.71357 2.42004 4.92402 2.94981 4.92402C3.47958 4.92402 3.98766 4.71357 4.36226 4.33897C4.73687 3.96436 4.94732 3.45629 4.94732 2.92651C4.94732 2.39674 4.73687 1.88867 4.36226 1.51406C3.98766 1.13946 3.47958 0.929004 2.94981 0.929004Z" fill="white"/>
</svg>
