<svg width="163" height="31" viewBox="0 0 163 31" fill="none" xmlns="http://www.w3.org/2000/svg">
<g clip-path="url(#clip0)">
<path fill-rule="evenodd" clip-rule="evenodd" d="M118.645 2.44243C118.66 3.03441 118.615 3.38443 118.537 3.50484C117.515 2.88247 116.552 2.56397 115.652 2.56397C114.718 2.56397 113.954 2.85209 113.328 3.43056C112.701 3.99216 112.395 4.75184 112.395 5.70847C112.395 6.66397 112.701 7.42365 113.328 8.00101C113.954 8.5626 114.718 8.85072 115.652 8.85072C116.552 8.85072 117.514 8.53334 118.537 7.90984C118.615 8.03139 118.66 8.37915 118.645 8.97226C118.631 9.56425 118.6 9.94352 118.537 10.1101C117.713 10.6109 116.705 10.8686 115.512 10.8686C113.815 10.8686 112.457 10.3678 111.432 9.38079C110.408 8.39266 109.904 7.16367 109.904 5.70735C109.904 4.24876 110.408 3.01865 111.432 2.03164C112.457 1.04574 113.815 0.544922 115.512 0.544922C116.705 0.544922 117.713 0.801524 118.537 1.30347C118.598 1.47116 118.629 1.84932 118.645 2.44243ZM65.7655 10.6402C66.3979 10.7471 67.0439 10.7471 67.6764 10.6402L72.3058 4.85538V10.6402C73.1156 10.7763 73.9427 10.7763 74.7524 10.6402V0.771137C74.1196 0.665339 73.4734 0.665339 72.8405 0.771137L68.2111 6.55594V0.771137C67.4017 0.633841 66.5749 0.633841 65.7655 0.771137V10.6402ZM59.7021 6.66173H55.5903V10.6402C54.7813 10.7775 53.9549 10.7775 53.1459 10.6402V0.772263C53.9549 0.634964 54.7813 0.634964 55.5903 0.772263V4.64267H59.7021V0.772263C60.5114 0.634966 61.3383 0.634966 62.1476 0.772263V10.6402C61.3382 10.7763 60.5115 10.7763 59.7021 10.6402V6.66173ZM43.9177 7.08827L41.9162 10.6402C42.2685 10.701 42.7114 10.7313 43.2313 10.7313C43.7489 10.7313 44.1782 10.7021 44.5304 10.6413L50.0616 0.772263C49.7104 0.711488 49.2823 0.681101 48.7634 0.681101C48.3233 0.675578 47.8835 0.706068 47.4483 0.772263L45.2169 4.96343L42.9854 0.772263C42.6343 0.711488 42.2061 0.681101 41.6873 0.681101C41.2472 0.675669 40.8074 0.706159 40.3723 0.772263L43.9177 7.08827ZM85.8871 3.35178C85.8871 2.59324 85.5824 1.96974 84.9865 1.4993C84.3919 1.01423 83.6126 0.771137 82.6487 0.770012H78.3703V10.6391H82.6792C84.7577 10.6391 86.0864 9.59124 86.0864 7.84569C86.0864 6.76639 85.4918 5.96282 84.529 5.5374C85.4295 5.08273 85.8871 4.35344 85.8871 3.35178ZM83.5967 7.55983C83.5967 6.87668 83.2139 6.52667 82.4356 6.52667H80.8147V8.62225H82.5274C83.2445 8.62225 83.5967 8.27224 83.5967 7.55983ZM80.8159 2.79132H82.3745C83.0916 2.79132 83.4438 3.12557 83.4438 3.80872C83.4438 4.46147 83.0304 4.825 82.3745 4.82612H80.8159V2.79132ZM89.2184 10.6402H96.1408C96.2632 9.97306 96.2632 9.28943 96.1408 8.62225H91.6624V6.66285H95.6197C95.743 5.99543 95.743 5.31123 95.6197 4.6438H91.6624V2.79132H96.1408C96.2632 2.12378 96.2632 1.43979 96.1408 0.772262H89.2184V10.6402ZM103.261 7.39101C104.375 7.39101 105.277 7.08827 105.964 6.48165C106.652 5.87391 107.003 5.06809 107.003 4.08107C107.003 3.09406 106.652 2.29162 105.964 1.68163C105.277 1.07614 104.375 0.771137 103.261 0.771137H99.3628V10.6402C100.173 10.7763 101 10.7763 101.81 10.6402V7.39101H103.261ZM104.513 4.08107C104.513 3.23136 103.976 2.79132 103.261 2.79132H101.81V5.37196H103.261C103.978 5.37084 104.513 4.93191 104.513 4.08107ZM129.294 0.771137L124.664 6.55594V0.771137C123.854 0.633838 123.028 0.633838 122.219 0.771137V10.6402C122.851 10.7471 123.497 10.7471 124.13 10.6402L128.759 4.85538V10.6402C129.569 10.7763 130.396 10.7763 131.205 10.6402V0.771137C130.571 0.665338 129.926 0.665338 129.294 0.771137ZM137.025 2.79019H134.336C134.213 2.12276 134.213 1.43856 134.336 0.771137H142.16C142.279 1.43886 142.279 2.12245 142.16 2.79019H139.47V10.6402C138.66 10.7763 137.834 10.7763 137.025 10.6402V2.79019ZM152.258 10.6402C152.38 9.97306 152.38 9.28943 152.258 8.62225H147.78V6.66285H151.737C151.86 5.99532 151.86 5.31133 151.737 4.6438H147.78V2.79132H152.258C152.38 2.12378 152.38 1.43979 152.258 0.772262H145.337V10.6402H152.258ZM157.682 10.6402V2.79132H154.992C154.87 2.12368 154.87 1.43989 154.992 0.772262H162.815C162.938 1.43969 162.938 2.12389 162.815 2.79132H160.126V10.6402C159.317 10.7775 158.491 10.7775 157.682 10.6402ZM48.6581 30.0699C50.526 30.0699 52.1061 29.6659 53.3985 28.8802C53.4948 28.6192 53.5423 28.0227 53.5662 27.0953C53.5899 26.168 53.5186 25.6199 53.3985 25.4308C51.7957 26.4054 50.2858 26.9073 48.8722 26.9073C47.4121 26.9073 46.2148 26.455 45.2328 25.5737C44.2518 24.67 43.7727 23.4815 43.7727 21.9824C43.7727 20.4833 44.2518 19.2937 45.2328 18.4125C46.2148 17.5088 47.4132 17.0575 48.8722 17.0575C50.2858 17.0575 51.7957 17.5561 53.3985 18.5341C53.5186 18.3416 53.5899 17.7969 53.5662 16.8684C53.5423 15.9411 53.4948 15.3457 53.3985 15.0846C52.1061 14.2979 50.526 13.895 48.6581 13.895C45.9996 13.895 43.8679 14.6782 42.265 16.2246C40.66 17.7722 39.8716 19.7001 39.8716 21.9824C39.8716 24.266 40.66 26.1939 42.265 27.738C43.8689 29.2843 45.9996 30.0699 48.6581 30.0699ZM59.7678 29.7142C58.7773 29.8808 57.7657 29.8808 56.7751 29.7142V14.2506C58.0429 14.0356 59.3382 14.0356 60.6049 14.2506V23.3138L67.8599 14.2506C68.8508 14.0841 69.8627 14.0841 70.8536 14.2506V29.7142C69.5862 29.927 68.2903 29.927 67.0228 29.7142V20.6488L59.7678 29.7142ZM74.1329 29.7142C75.4027 29.927 76.6962 29.927 77.9649 29.7142V23.4815H84.4055V29.7142C85.6729 29.927 86.9688 29.927 88.2363 29.7142V14.2506C86.9685 14.0356 85.6732 14.0356 84.4055 14.2506V20.3168H77.9649V14.2506C76.6967 14.0356 75.4011 14.0356 74.1329 14.2506V29.7142ZM91.5877 14.2495H102.436C102.626 15.296 102.626 16.3678 102.436 17.412H95.419V20.3134H101.622C101.812 21.3602 101.812 22.4324 101.622 23.4792H95.419V26.5472H102.436C102.626 27.5941 102.626 28.6663 102.436 29.7132H91.5877V14.2495ZM115.436 23.1945C114.358 24.1478 112.945 24.6227 111.197 24.6227H108.923V29.7142C107.654 29.927 106.359 29.927 105.091 29.7142V14.2506H111.197C112.945 14.2506 114.358 14.7267 115.436 15.6788C116.513 16.6287 117.065 17.8903 117.065 19.4355C117.065 20.9819 116.513 22.2435 115.436 23.1945ZM111.198 17.4153C112.324 17.4153 113.162 18.1019 113.162 19.4355C113.162 20.7681 112.324 21.458 111.198 21.458H108.924V17.4153H111.198ZM123.649 29.7142V17.4153H130.066C130.258 16.3686 130.258 15.2962 130.066 14.2495H119.818V29.7142C121.087 29.927 122.379 29.927 123.649 29.7142ZM136.41 14.2506V23.3138L143.666 14.2506C144.656 14.0841 145.668 14.0841 146.659 14.2506V29.7142C145.389 29.927 144.096 29.927 142.827 29.7142V20.6488L135.572 29.7142C134.582 29.8808 133.57 29.8808 132.58 29.7142V14.2506C133.848 14.0356 135.143 14.0356 136.41 14.2506ZM158.102 29.7142V24.4809H156.617L153.193 29.7142C152.644 29.8088 151.925 29.8572 151.088 29.8572C150.249 29.8572 149.58 29.8088 149.028 29.7142L152.811 23.9103C150.969 23.0763 149.843 21.4354 149.843 19.3646C149.843 17.8419 150.369 16.6051 151.422 15.6788C152.501 14.7267 153.889 14.2506 155.637 14.2506H161.935V29.7142C160.666 29.927 159.371 29.927 158.102 29.7142ZM158.102 17.4153V21.3151H155.709C154.584 21.3151 153.746 20.624 153.746 19.3635C153.746 18.103 154.584 17.4153 155.709 17.4153H158.102Z" fill="#0C143B"/>
<path fill-rule="evenodd" clip-rule="evenodd" d="M1.08984 29.815V0.703125H30.3875V29.815H1.08984ZM26.7244 4.34169H4.75079V26.1753H26.7244V4.34169ZM14.7356 15.2585L19.2869 19.7806V24.925L9.55689 15.2574L19.2869 5.59094V10.7365L14.7356 15.2585Z" fill="#FE334A"/>
</g>
<defs>
<clipPath id="clip0">
<rect width="162" height="30" fill="white" transform="translate(0.972656 0.107422)"/>
</clipPath>
</defs>
</svg>
