<svg width="70" height="70" viewBox="0 0 70 70" fill="none" xmlns="http://www.w3.org/2000/svg">
<path d="M68.4219 23.3259C68.4219 20.6295 66.2279 18.4355 63.5315 18.4355C62.2259 18.4355 60.9968 18.9444 60.074 19.8684L56.8784 23.0639L53.3281 26.6142V16.193C56.9797 15.6669 59.7969 12.5263 59.7969 8.73242C59.7969 4.57086 56.4116 1.18555 52.25 1.18555H9.125C4.96344 1.18555 1.57812 4.57086 1.57812 8.73242V62.6387C1.57812 63.2338 2.06113 63.7168 2.65625 63.7168H8.04688V66.9512C8.04688 67.5463 8.52987 68.0293 9.125 68.0293H52.25C52.8451 68.0293 53.3281 67.5463 53.3281 66.9512V40.4444L63.7935 29.979L64.9007 28.8718C64.3423 31.6534 62.9806 34.2107 60.93 36.2623L55.8013 41.391L57.3258 42.9155L62.4545 37.7868C65.5142 34.7271 67.2252 30.6863 67.3254 26.3749C68.023 25.5102 68.4219 24.4536 68.4219 23.3259ZM61.5984 21.3928C62.1148 20.8764 62.8016 20.5918 63.5315 20.5918C65.0387 20.5918 66.2656 21.8187 66.2656 23.3259C66.2656 24.0558 65.981 24.7426 65.4646 25.259L63.0312 27.6923L59.1651 23.8262L61.5984 21.3928ZM57.6406 25.3506L58.8115 26.5215L45.2422 40.0908L44.0713 38.9199L57.6406 25.3506ZM31.9996 53.8013L34.2173 49.3648L37.4926 52.6401L33.0561 54.8578L31.9996 53.8013ZM35.4463 47.5449L42.5469 40.4444L46.413 44.3105L39.3125 51.4111L35.4463 47.5449ZM52.25 3.3418C55.2224 3.3418 57.6406 5.76003 57.6406 8.73242C57.6406 11.7048 55.2224 14.123 52.25 14.123H14.397C15.7986 12.7517 16.6719 10.8434 16.6719 8.73242C16.6719 6.62145 15.7986 4.71317 14.397 3.3418H52.25ZM10.2031 14.0142V10.8887C10.2031 10.2946 10.6872 9.81055 11.2812 9.81055H14.4067C13.9766 11.9194 12.3119 13.584 10.2031 14.0142ZM3.73438 61.5605V8.73242C3.73438 5.76003 6.15261 3.3418 9.125 3.3418C11.7276 3.3418 13.9054 5.19725 14.4067 7.6543H11.2812C9.49803 7.6543 8.04688 9.10545 8.04688 10.8887V61.5605H3.73438ZM51.1719 65.873H10.2031V16.2793H51.1719V28.7705L46.413 33.5293H14.5156V35.6855H44.2568L42.1005 37.8418H14.5156V39.998H39.9443L33.1596 46.7827C33.0755 46.8668 33.0206 46.967 32.9699 47.0684L32.958 47.0619L29.7237 53.5307C29.5167 53.9457 29.5975 54.4471 29.9263 54.7748L30.2412 55.0918L27.769 57.5639L29.2935 59.0884L31.7656 56.6163L32.0815 56.9322C32.2885 57.1392 32.5645 57.248 32.8438 57.248C33.0065 57.248 33.1726 57.2103 33.3257 57.1348L39.7944 53.9005L39.788 53.8886C39.8893 53.8379 39.9896 53.783 40.0737 53.6989L48.6987 45.0739L51.1719 42.6006V65.873ZM47.9375 42.7861L46.7667 41.6152L60.3359 28.046L61.5068 29.2168L47.9375 42.7861Z" fill="#2D2D2D"/>
<path d="M14.5156 20.5918H46.8594V22.748H14.5156V20.5918Z" fill="#2D2D2D"/>
<path d="M14.5156 24.9043H46.8594V27.0605H14.5156V24.9043Z" fill="#2D2D2D"/>
<path d="M14.5156 29.2168H46.8594V31.373H14.5156V29.2168Z" fill="#2D2D2D"/>
<path d="M14.5156 55.0918H26.375V57.248H14.5156V55.0918Z" fill="#2D2D2D"/>
<path d="M14.5156 59.4043H46.8594V61.5605H14.5156V59.4043Z" fill="#2D2D2D"/>
</svg>
