<svg width="70" height="70" viewBox="0 0 70 70" fill="none" xmlns="http://www.w3.org/2000/svg">
<g clip-path="url(#clip0)">
<path d="M55.4844 29.2168H60.875V31.373H55.4844V29.2168Z" fill="black"/>
<path d="M54.4062 34.6074H60.875V36.7637H54.4062V34.6074Z" fill="black"/>
<path d="M52.25 39.998H60.875V42.1543H52.25V39.998Z" fill="black"/>
<path d="M51.1719 45.3887H60.875V47.5449H51.1719V45.3887Z" fill="black"/>
<path d="M49.0156 50.7793H60.875V52.9355H49.0156V50.7793Z" fill="black"/>
<path d="M57.6406 23.8262H60.875V25.9824H57.6406V23.8262Z" fill="black"/>
<path d="M61.6299 13.0445L62.7886 9.1279L60.417 10.5529C58.1139 11.9311 55.5254 12.7618 52.8507 12.9798C53.8788 8.59884 51.7778 4.08261 47.7638 2.04744L45.3996 0.867188L37.5205 13.0445H22.0625C18.4912 13.0482 15.5974 15.942 15.5938 19.5133V62.6383C15.5974 66.2096 18.4912 69.1033 22.0625 69.107H65.1875V13.0445H61.6299ZM59.221 13.5836L48.0886 51.1916C44.3799 53.7701 40.0964 55.4015 35.6122 55.9432L52.0968 15.166C54.5505 15.0892 56.9678 14.5522 59.2231 13.5836H59.221ZM46.1629 3.66463L46.7988 3.98312C50.3048 5.75613 51.8768 9.9128 50.4217 13.562L34.1656 53.7759C33.9266 47.5045 30.3022 41.8575 24.7004 39.0274L23.6223 38.4884L46.1629 3.66463ZM17.75 19.5133C17.75 17.1317 19.6809 15.2008 22.0625 15.2008H36.1255L20.5037 39.3507L23.7381 40.9679C29.3799 43.82 32.6416 49.8908 31.9057 56.1695H22.0625C20.469 56.1701 18.9324 56.7618 17.75 57.8299V19.5133ZM63.0312 61.5602H22.0625V63.7164H63.0312V66.9508H22.0625C19.6809 66.9508 17.75 65.0198 17.75 62.6383C17.75 60.2567 19.6809 58.3258 22.0625 58.3258H63.0312V61.5602ZM63.0312 56.1695H43.3697C45.5896 55.2783 47.6953 54.1254 49.6421 52.7346L49.9437 52.5187L60.9934 15.2008H63.0312V56.1695Z" fill="black"/>
<path d="M4.8125 0.107422H30.6875V2.26367H4.8125V0.107422Z" fill="black"/>
<path d="M4.8125 4.41992H22.0625V6.57617H4.8125V4.41992Z" fill="black"/>
<path d="M4.8125 8.73242H13.4375V10.8887H4.8125V8.73242Z" fill="black"/>
</g>
<defs>
<clipPath id="clip0">
<rect width="69" height="69" fill="white" transform="translate(0.5 0.107422)"/>
</clipPath>
</defs>
</svg>
