<svg width="310" height="34" viewBox="0 0 310 34" fill="none" xmlns="http://www.w3.org/2000/svg">
<path d="M161.2 3.9231H160.167V31.1799H161.2V3.9231Z" fill="#ED1C24"/>
<path d="M43.4001 3.9231C43.8135 3.9231 44.2268 3.9231 44.6401 3.9231C45.0535 3.9231 45.4668 3.9231 45.8801 3.9231L40.7135 13.2152C40.3001 13.2152 39.8868 13.2152 39.4735 13.2152C39.0601 13.2152 38.6468 13.2152 38.2335 13.2152L40.0935 9.91133L36.7868 3.9231C37.2001 3.9231 37.6135 3.9231 38.0268 3.9231C38.4401 3.9231 38.8535 3.9231 39.2668 3.9231L41.3335 7.84642L43.4001 3.9231Z" fill="#2D2D2D"/>
<path d="M54.7667 3.92367C55.5933 3.71718 56.2133 3.71718 57.04 3.92367V13.2158C56.2133 13.4223 55.5933 13.4223 54.7667 13.2158V9.49892H50.84V13.2158C50.0133 13.4223 49.3933 13.4223 48.5667 13.2158V3.92367C49.3933 3.71718 50.0133 3.71718 50.84 3.92367V7.6405H54.7667V3.92367Z" fill="#2D2D2D"/>
<path d="M68.8199 13.2158C67.9933 13.4223 67.3733 13.4223 66.5466 13.2158V7.847L62.2066 13.2158C61.5866 13.2158 60.9666 13.2158 60.3466 13.2158V3.92367C61.1733 3.71718 61.7933 3.71718 62.6199 3.92367V9.29243L66.96 3.92367C67.58 3.92367 68.1999 3.92367 68.8199 3.92367V13.2158Z" fill="#2D2D2D"/>
<path d="M74.4002 11.3568H76.0535C76.6735 11.3568 77.0868 10.9438 77.0868 10.3243C77.0868 9.70484 76.6735 9.29186 76.0535 9.29186H74.4002V11.3568ZM74.4002 7.63993H75.8468C76.0535 7.63993 76.4668 7.63993 76.6735 7.43344C76.8802 7.22695 76.8802 7.02046 76.8802 6.81397C76.8802 6.1945 76.4668 5.78151 75.8468 5.78151H74.4002V7.63993ZM76.2602 3.9231C77.0868 3.9231 77.9135 4.12959 78.5335 4.54257C79.1535 4.95555 79.3602 5.57502 79.3602 6.1945C79.3602 7.22695 78.9468 7.84642 78.1202 8.25941C78.5335 8.4659 78.9468 8.67239 79.1535 9.08537C79.3602 9.49835 79.5668 9.91133 79.5668 10.3243C79.5668 11.1503 79.3602 11.7698 78.7402 12.1827C78.1202 12.5957 77.2935 12.8022 76.4668 12.8022H72.5402V3.9231H76.2602Z" fill="#2D2D2D"/>
<path d="M88.8665 11.3568C88.8665 11.9762 88.8665 12.5957 88.8665 13.2152H82.4599V3.9231H88.8665C88.8665 4.54257 88.8665 5.16204 88.8665 5.78151H84.7332V7.43344H88.4532C88.6599 8.05292 88.6599 8.67239 88.4532 9.29186H84.7332V11.1503H88.8665V11.3568Z" fill="#2D2D2D"/>
<path d="M95.4799 8.25941C95.8932 8.25941 96.0999 8.25941 96.3065 8.05292C96.5132 7.84642 96.7199 7.63993 96.7199 7.22695C96.7199 6.81397 96.5132 6.60748 96.3065 6.40099C96.0999 6.1945 95.8932 6.1945 95.4799 6.1945H94.0332V8.67239L95.4799 8.25941ZM95.4799 3.9231C96.5132 3.9231 97.3399 4.12959 97.9599 4.74906C98.5799 5.36853 98.9932 5.98801 98.9932 7.02046C98.9932 7.84642 98.5799 8.67239 97.9599 9.29186C97.3399 9.91133 96.5132 10.1178 95.4799 10.1178H94.0332V13.2152C93.2065 13.4217 92.5865 13.4217 91.7599 13.2152V3.9231H95.4799Z" fill="#2D2D2D"/>
<path d="M107.053 11.5639C107.88 11.5639 108.707 11.3574 109.74 10.7379C109.74 10.9444 109.74 11.1509 109.74 11.7704C109.74 12.3899 109.74 12.5963 109.74 12.8028C108.913 13.2158 108.087 13.4223 106.847 13.4223C105.193 13.4223 103.953 13.0093 103.127 11.9769C102.093 11.1509 101.68 9.91196 101.68 8.46653C101.68 7.02109 102.093 5.98863 103.127 4.95618C104.16 4.13021 105.4 3.51074 106.847 3.51074C107.88 3.51074 108.913 3.71723 109.74 4.13021C109.74 4.33671 109.74 4.5432 109.74 5.16267C109.74 5.78214 109.74 5.98863 109.74 6.19512C108.707 5.57565 107.88 5.36916 107.053 5.36916C106.227 5.36916 105.4 5.57565 104.78 6.19512C104.16 6.8146 103.953 7.43407 103.953 8.26004C103.953 9.086 104.16 9.91196 104.78 10.3249C105.4 11.1509 106.227 11.5639 107.053 11.5639Z" fill="#2D2D2D"/>
<path d="M121.52 13.2158C120.693 13.4223 120.073 13.4223 119.247 13.2158V7.847L114.907 13.2158C114.287 13.2158 113.667 13.2158 113.047 13.2158V3.92367C113.873 3.71718 114.493 3.71718 115.32 3.92367V9.29243L119.867 3.92367C120.487 3.92367 121.107 3.92367 121.727 3.92367V13.2158H121.52Z" fill="#2D2D2D"/>
<path d="M131.854 3.9231C132.06 4.54257 132.06 5.16204 131.854 5.78151H129.374V13.2152C128.547 13.4217 127.927 13.4217 127.1 13.2152V5.78151H124.62C124.414 5.16204 124.414 4.54257 124.62 3.9231H131.854Z" fill="#2D2D2D"/>
<path d="M141.36 11.3568C141.567 11.9762 141.567 12.5957 141.36 13.2152H134.953V3.9231H141.36C141.567 4.54257 141.567 5.16204 141.36 5.78151H137.227V7.43344H140.947C141.153 8.05292 141.153 8.67239 140.947 9.29186H137.227V11.1503H141.36V11.3568Z" fill="#2D2D2D"/>
<path d="M151.073 3.9231C151.28 4.54257 151.28 5.16204 151.073 5.78151H148.593V13.2152C147.767 13.4217 147.147 13.4217 146.32 13.2152V5.78151H143.84C143.633 5.16204 143.633 4.54257 143.84 3.9231H151.073Z" fill="#2D2D2D"/>
<path d="M44.64 28.4964C45.88 28.4964 47.3266 28.0834 48.7733 27.051C48.98 27.2574 48.98 27.6704 48.98 28.7029C48.98 29.5288 48.98 30.1483 48.7733 30.3548C47.5333 31.1808 46.0866 31.3873 44.4333 31.3873C41.9533 31.3873 39.8866 30.5613 38.44 29.1159C36.9933 27.6704 36.1666 25.812 36.1666 23.7471C36.1666 21.6822 36.9933 19.8238 38.44 18.3783C39.8866 16.9329 41.9533 16.1069 44.4333 16.1069C46.0866 16.1069 47.74 16.5199 48.7733 17.1394C48.7733 17.3459 48.98 17.9654 48.98 18.7913C48.98 19.6173 48.98 20.2368 48.7733 20.4432C47.3266 19.6173 45.88 18.9978 44.64 18.9978C43.1933 18.9978 42.16 19.4108 41.1266 20.2368C40.3 21.0627 39.68 22.0952 39.68 23.5406C39.68 24.986 40.0933 26.0185 41.1266 26.8445C42.16 28.0834 43.1933 28.4964 44.64 28.4964Z" fill="#2D2D2D"/>
<path d="M65.1001 31.18C63.8601 31.3865 62.8268 31.3865 61.5868 31.18V22.7139L54.7668 31.18C53.9401 31.3865 52.9068 31.3865 51.8735 31.18V16.7257C53.1135 16.5192 54.1468 16.5192 55.3868 16.7257V25.1918L62.4135 16.7257C63.2401 16.5192 64.2735 16.5192 65.3068 16.7257V31.18H65.1001Z" fill="#2D2D2D"/>
<path d="M77.9135 16.7257C79.1535 16.5192 80.1868 16.5192 81.4268 16.7257V31.18C80.1868 31.3865 79.1535 31.3865 77.9135 31.18V25.3983H71.9202V31.18C70.6802 31.3865 69.6468 31.3865 68.4068 31.18V16.7257C69.6468 16.5192 70.6802 16.5192 71.9202 16.7257V22.3009H77.9135V16.7257Z" fill="#2D2D2D"/>
<path d="M94.6532 28.2893C94.8598 29.3218 94.8598 30.1477 94.6532 31.1802H84.5265V16.7258H94.6532C94.8598 17.7583 94.8598 18.7907 94.6532 19.6167H88.0398V22.3011H93.8265C94.0332 23.3335 94.0332 24.366 93.8265 25.192H88.0398V28.0828H94.6532V28.2893Z" fill="#2D2D2D"/>
<path d="M102.92 23.3335C103.334 23.3335 103.954 23.127 104.16 22.9206C104.574 22.5076 104.78 22.0946 104.78 21.4751C104.78 20.8556 104.574 20.4427 104.16 20.0297C103.747 19.6167 103.334 19.6167 102.92 19.6167H100.854V23.3335H102.92ZM102.92 16.7258C104.574 16.7258 105.814 17.1388 106.847 17.9648C107.88 18.7907 108.294 20.0297 108.294 21.4751C108.294 22.9206 107.88 24.1595 106.847 24.9855C105.814 25.8114 104.574 26.2244 102.92 26.2244H100.854V31.1802C99.6135 31.3867 98.5802 31.3867 97.3402 31.1802V16.7258H102.92Z" fill="#2D2D2D"/>
<path d="M120.487 16.7258C120.693 17.7583 120.693 18.7907 120.487 19.6167H114.493V31.1802C113.253 31.3867 112.22 31.3867 110.98 31.1802V16.7258H120.487Z" fill="#2D2D2D"/>
<path d="M135.986 31.18C134.746 31.3865 133.713 31.3865 132.473 31.18V22.7139L125.653 31.18C124.826 31.3865 123.793 31.3865 122.76 31.18V16.7257C124 16.5192 125.033 16.5192 126.273 16.7257V25.1918L133.3 16.7257C134.126 16.5192 135.16 16.5192 136.193 16.7257V31.18H135.986Z" fill="#2D2D2D"/>
<path d="M144.46 19.6167C144.047 19.6167 143.427 19.8232 143.22 20.0297C142.807 20.4427 142.6 20.8556 142.6 21.4751C142.6 22.0946 142.807 22.5076 143.22 22.9206C143.633 23.127 144.047 23.3335 144.46 23.3335H146.733V19.6167H144.46ZM150.247 31.1802C149.007 31.3867 147.973 31.3867 146.733 31.1802V26.2244H145.287L142.187 31.1802C141.773 31.1802 140.947 31.3867 140.327 31.3867C139.5 31.3867 138.88 31.3867 138.467 31.1802L141.98 25.8114C141.153 25.3984 140.533 24.779 139.913 24.1595C139.5 23.3335 139.087 22.5076 139.087 21.6816C139.087 20.2362 139.5 18.9972 140.533 18.1713C141.567 17.1388 142.807 16.7258 144.46 16.7258H150.247V31.1802Z" fill="#2D2D2D"/>
<path d="M180.833 15.4872C180.213 15.6937 179.593 15.6937 178.973 15.4872V7.02103L172.36 15.4872C171.947 15.4872 171.327 15.4872 170.913 15.4872V3.92367C171.533 3.71718 172.153 3.71718 172.773 3.92367V12.3898L179.387 3.92367C179.8 3.71718 180.42 3.71718 180.833 3.92367V15.4872Z" fill="#2D2D2D"/>
<path d="M189.72 9.49898C190.34 9.70547 190.96 10.1185 191.373 10.5314C191.787 11.1509 191.993 11.5639 191.993 12.3899C191.993 13.4223 191.58 14.2483 190.753 14.8677C189.927 15.4872 188.893 15.6937 187.653 15.6937C186.207 15.6937 184.967 15.2807 183.933 14.6613C183.933 14.4548 183.933 14.2483 183.933 13.8353C183.933 13.4223 183.933 13.0093 184.14 13.0093C185.173 13.8353 186.413 14.2483 187.86 14.2483C188.48 14.2483 189.1 14.0418 189.72 13.6288C190.133 13.2158 190.547 12.8028 190.547 12.1834C190.547 11.5639 190.34 11.1509 189.927 10.7379C189.513 10.3249 189.1 10.1185 188.273 10.1185H186.413C186.207 9.70547 186.207 9.086 186.413 8.67302H188.273C188.893 8.67302 189.307 8.46653 189.72 8.05354C190.133 7.64056 190.34 7.22758 190.34 6.8146C190.34 6.19512 190.133 5.78214 189.72 5.57565C189.307 5.16267 188.893 4.95618 188.067 4.95618C186.827 4.95618 185.587 5.36916 184.553 6.19512C184.553 6.19512 184.347 5.78214 184.347 5.36916C184.347 4.95618 184.347 4.74969 184.347 4.5432C185.38 3.92372 186.62 3.51074 188.067 3.51074C189.307 3.51074 190.133 3.71723 190.96 4.33671C191.58 4.95618 191.993 5.57565 191.993 6.60811C191.993 7.22758 191.787 7.84705 191.58 8.26004C190.547 8.87951 190.133 9.29249 189.72 9.49898Z" fill="#2D2D2D"/>
<path d="M197.987 5.36853L197.366 10.7373C197.16 12.1827 196.746 13.2152 196.126 13.8347H202.12V5.36853H197.987ZM205.633 17.345C205.013 17.5515 204.393 17.5515 203.773 17.345V15.4866H194.886V17.345C194.266 17.5515 193.646 17.5515 193.026 17.345V13.8347H194.266C195.093 13.4217 195.506 12.3892 195.713 10.7373L196.333 3.9231H203.98V13.8347H205.427V17.345H205.633Z" fill="#2D2D2D"/>
<path d="M214.314 10.9444L212.454 6.19507L210.594 10.9444H214.314ZM217.827 15.4872C217.207 15.6937 216.587 15.6937 215.967 15.4872L214.934 12.5963H209.974L208.734 15.4872C208.114 15.6937 207.494 15.6937 206.874 15.4872L211.627 3.92367C212.04 3.71718 212.66 3.71718 213.074 3.92367L217.827 15.4872Z" fill="#2D2D2D"/>
<path d="M227.127 3.9231C227.333 4.33608 227.333 4.95555 227.127 5.36853H223.613V15.2801C222.993 15.4866 222.373 15.4866 221.753 15.2801V5.36853H218.24C218.033 4.95555 218.033 4.33608 218.24 3.9231H227.127Z" fill="#2D2D2D"/>
<path d="M237.047 13.8347C237.253 14.4541 237.253 14.8671 237.047 15.2801H229.193V3.9231H237.047C237.253 4.33608 237.253 4.95555 237.047 5.36853H231.053V8.67239H236.633C236.84 9.29186 236.84 9.70484 236.633 10.1178H231.053V13.6282L237.047 13.8347Z" fill="#2D2D2D"/>
<path d="M249.447 15.4866C248.827 15.6931 248.207 15.6931 247.587 15.4866V5.36853H243.247L242.627 12.1827C242.42 13.4217 242.213 14.2476 241.8 14.8671C241.387 15.4866 240.56 15.6931 239.733 15.6931C239.32 15.6931 239.113 15.6931 238.907 15.4866C238.7 15.0736 238.7 14.4541 238.907 14.0412C239.113 14.0412 239.113 14.0412 239.32 14.0412C239.733 14.0412 240.147 13.8347 240.56 13.6282C240.767 13.2152 240.973 12.8022 241.18 11.9762L242.007 3.9231H249.86L249.447 15.4866Z" fill="#2D2D2D"/>
<path d="M256.473 13.8352C257.3 13.8352 257.92 13.6287 258.333 13.2158C258.747 12.8028 258.953 12.1833 258.953 11.5638C258.953 10.9444 258.747 10.3249 258.333 9.91191C257.92 9.49892 257.3 9.29243 256.473 9.29243H253.993V13.8352H256.473ZM256.473 7.847C257.713 7.847 258.953 8.25998 259.573 8.87945C260.4 9.49892 260.813 10.5314 260.813 11.5638C260.813 12.5963 260.4 13.6287 259.573 14.2482C258.747 14.8677 257.713 15.2807 256.473 15.2807H252.133V3.92367C252.753 3.71718 253.373 3.71718 253.993 3.92367V7.847H256.473Z" fill="#2D2D2D"/>
<path d="M269.287 14.2486C270.527 14.2486 271.767 13.8356 273.007 13.0096C273.007 13.0096 273.213 13.4226 273.213 13.8356C273.213 14.2486 273.213 14.6616 273.213 14.6616C272.18 15.281 270.94 15.694 269.493 15.694C267.633 15.694 266.187 15.0745 264.947 14.0421C263.707 12.8031 263.087 11.3577 263.087 9.70577C263.087 8.05384 263.707 6.6084 264.947 5.36946C266.187 4.13051 267.633 3.71753 269.493 3.71753C270.94 3.71753 272.18 4.13051 273.213 4.74998C273.213 4.95648 273.213 5.16297 273.213 5.57595C273.213 5.98893 273.213 6.19542 273.213 6.40191C271.973 5.57595 270.94 5.16297 269.493 5.16297C268.253 5.16297 267.013 5.57595 266.187 6.40191C265.36 7.22788 264.947 8.26033 264.947 9.70577C264.947 10.9447 265.36 12.1837 266.187 13.0096C266.807 13.6291 268.047 14.0421 269.287 14.2486Z" fill="#2D2D2D"/>
<path d="M285.2 15.4872C284.993 15.4872 284.58 15.4872 284.167 15.4872C283.753 15.4872 283.34 15.4872 283.133 15.4872L277.76 9.9119V15.4872C277.14 15.6937 276.52 15.6937 275.9 15.4872V3.92367C276.52 3.71718 277.14 3.71718 277.76 3.92367V9.29243L282.72 3.92367C282.927 3.92367 283.34 3.92367 283.753 3.92367C284.167 3.92367 284.58 3.92367 284.787 3.92367L279.413 9.49892L285.2 15.4872Z" fill="#2D2D2D"/>
<path d="M297.187 15.4872C296.567 15.6937 295.947 15.6937 295.327 15.4872V7.02103L288.713 15.4872C288.3 15.4872 287.68 15.4872 287.267 15.4872V3.92367C287.887 3.71718 288.507 3.71718 289.127 3.92367V12.3898L295.74 3.92367C296.153 3.71718 296.773 3.71718 297.187 3.92367V15.4872Z" fill="#2D2D2D"/>
<path d="M307.52 0.206491C307.52 0.206491 307.727 0.412982 307.727 0.825964C307.727 1.23895 307.727 1.44544 307.727 1.44544C307.107 2.06491 306.28 2.2714 305.247 2.2714C304.213 2.2714 303.387 2.06491 302.56 1.44544C302.56 1.23895 302.56 1.03245 302.56 0.619473C302.56 0.206491 302.56 0 302.767 0C303.593 0.619473 304.42 0.825964 305.247 0.825964C305.867 1.03245 306.693 0.825964 307.52 0.206491ZM310 15.4868C309.38 15.6933 308.76 15.6933 308.14 15.4868V7.02069L301.527 15.4868C301.113 15.4868 300.493 15.4868 300.08 15.4868V3.92333C300.7 3.71684 301.32 3.71684 301.94 3.92333V12.3895L308.553 3.92333C308.967 3.71684 309.587 3.71684 310 3.92333V15.4868Z" fill="#2D2D2D"/>
<path d="M175.047 21.0618L174.427 26.4306C174.22 27.876 173.807 28.9085 173.187 29.528H179.18V21.0618H175.047ZM182.487 33.0383C181.867 33.2448 181.247 33.2448 180.627 33.0383V31.1799H171.74V33.0383C171.12 33.2448 170.5 33.2448 169.88 33.0383V29.528H170.913C171.74 29.115 172.153 28.0825 172.36 26.4306L172.98 19.4099H180.627V29.3215H182.073V33.0383H182.487Z" fill="#2D2D2D"/>
<path d="M187.24 22.0943C186.413 22.9203 186 24.1592 186 25.3982C186 26.6371 186.413 27.876 187.24 28.702C188.067 29.528 189.1 29.941 190.34 29.941C191.58 29.941 192.613 29.528 193.44 28.702C194.267 27.876 194.68 26.8436 194.68 25.3982C194.68 24.1592 194.267 22.9203 193.44 22.0943C192.613 21.2683 191.58 20.8553 190.34 20.8553C189.1 20.8553 188.067 21.2683 187.24 22.0943ZM190.34 19.4099C192.2 19.4099 193.647 20.0294 194.68 21.0618C195.92 22.3008 196.333 23.7462 196.333 25.3982C196.333 27.0501 195.713 28.4955 194.68 29.7345C193.44 30.9734 191.993 31.3864 190.34 31.3864C188.48 31.3864 187.033 30.7669 186 29.7345C184.76 28.4955 184.347 27.0501 184.347 25.3982C184.347 23.7462 184.967 22.3008 186 21.0618C187.033 19.8229 188.48 19.4099 190.34 19.4099Z" fill="#2D2D2D"/>
<path d="M212.66 31.1808C212.04 31.3873 211.42 31.3873 210.8 31.1808L208.94 22.9211L206.047 31.1808C205.427 31.1808 205.013 31.1808 204.6 31.1808L201.707 22.9211L199.847 31.1808C199.02 31.1808 198.4 31.1808 197.987 31.1808L200.673 19.6173C201.087 19.4108 201.707 19.4108 202.327 19.6173L205.427 28.2899L208.527 19.6173C209.147 19.4108 209.56 19.4108 210.18 19.6173L212.66 31.1808Z" fill="#2D2D2D"/>
<path d="M16.9467 26.4306L7.85333 17.5515L16.9467 8.4659V13.2152L12.6067 17.345L16.9467 21.4748V26.4306ZM23.9733 27.6696H3.51333V7.22695H23.9733V27.6696ZM0 31.1799H27.28V3.9231H0V31.1799Z" fill="#ED1C24"/>
</svg>
