<svg width="24" height="36" viewBox="0 0 24 36" fill="none" xmlns="http://www.w3.org/2000/svg">
<path d="M11.9669 34.2813C11.0881 33.8746 10.2886 33.3159 9.57976 32.612C6.45696 29.511 4.00043 25.6774 2.47563 21.5255C0.950828 17.3735 0.342409 12.8612 0.716096 8.47617C0.836214 7.06699 1.28323 5.76183 2.04491 4.59687C2.75839 3.50568 3.7378 2.57907 4.87734 1.91722C6.02191 1.25247 7.31952 0.859525 8.62985 0.78088C10.0272 0.697039 11.3896 0.957116 12.6794 1.55402C13.0805 1.73966 13.2975 2.18039 13.2 2.6115L11.6513 9.46134C11.5812 9.77151 11.3586 10.025 11.0601 10.1346L7.72228 11.3604C7.89419 16.6363 9.77054 21.7456 13.054 25.8788L16.3918 24.653C16.6903 24.5434 17.0241 24.5927 17.2783 24.7836L22.8921 29.0031C23.2454 29.2687 23.3652 29.745 23.1796 30.1462C22.5827 31.4359 21.7123 32.516 20.5928 33.3564C19.543 34.1445 18.2995 34.6848 16.9968 34.9188C15.6998 35.1518 14.3535 35.0793 13.1033 34.7091C12.7115 34.5932 12.3323 34.4503 11.9669 34.2813ZM11.1949 2.97818C9.4067 2.37864 7.48401 2.57152 5.81894 3.53861C3.94658 4.62604 2.76759 6.48372 2.58423 8.63541C1.86586 17.0657 4.89716 25.3199 10.9008 31.2816C12.4331 32.8032 14.5341 33.4563 16.6654 33.0735C18.5606 32.7331 20.1511 31.6358 21.1263 30.0214L16.5595 26.5889L13.0736 27.869C12.7027 28.0053 12.2862 27.8943 12.0323 27.5917C8.07125 22.8713 5.8703 16.8781 5.83488 10.716C5.83262 10.321 6.07825 9.96682 6.44917 9.83065L9.93502 8.5505L11.1949 2.97818Z" fill="#2D2D2D"/>
</svg>
