<svg width="37" height="22" viewBox="0 0 37 22" fill="none" xmlns="http://www.w3.org/2000/svg">
<path d="M1.84015 7.47771L1.84015 13.706C1.84015 14.0498 2.11518 14.3289 2.45401 14.3289C2.79285 14.3289 3.06788 14.0498 3.06788 13.706L3.06788 7.47771C3.06788 7.13394 2.79285 6.8549 2.45401 6.8549C2.11518 6.8549 1.84015 7.13394 1.84015 7.47771Z" fill="#414143"/>
<path d="M1.84015 3.12303L1.84015 3.74584C1.84015 4.08962 2.11518 4.36865 2.45401 4.36865C2.79285 4.36865 3.06788 4.08962 3.06788 3.74584L3.06788 3.12303C3.06788 2.77925 2.79285 2.50022 2.45401 2.50022C2.11518 2.50022 1.84015 2.77925 1.84015 3.12303Z" fill="#414143"/>
<path d="M31.3135 9.804L31.3135 11.3505C31.3135 12.2978 32.0735 13.0688 33.0072 13.0688L33.3037 13.0688C34.2374 13.0688 34.9968 12.2978 34.9968 11.3511L34.9968 9.80458C34.9968 8.85726 34.2374 8.08621 33.3037 8.08621L33.0072 8.08621C32.0735 8.08621 31.3135 8.85726 31.3135 9.804ZM33.3037 9.33183C33.5603 9.33183 33.769 9.54357 33.769 9.80392L33.769 11.3505C33.769 11.6114 33.5603 11.8232 33.3037 11.8232L33.0072 11.8232C32.75 11.8232 32.5412 11.6115 32.5412 11.3505L32.5412 9.80458C32.5412 9.54357 32.7499 9.33183 33.0072 9.33183L33.3037 9.33183Z" fill="#414143"/>
<path d="M-7.50728e-07 2.25101L-8.93136e-08 18.925C-4.00736e-08 20.1663 0.995723 21.1765 2.21921 21.1765L34.6141 21.1765C35.8376 21.1765 36.8333 20.1663 36.8333 18.925L36.8333 2.25167C36.8333 1.01035 35.8376 0.000116529 34.6148 0.000116588L2.21921 0.000118149C0.995722 4.57284e-05 -7.99945e-07 1.01028 -7.50728e-07 2.25101ZM34.6141 1.24574C35.1605 1.24574 35.6055 1.69666 35.6055 2.25101L35.6055 18.925C35.6055 19.4799 35.1604 19.9308 34.6147 19.9308L2.21921 19.9308C1.67282 19.9308 1.2278 19.4799 1.2278 18.925L1.2278 2.25167C1.2278 1.69674 1.67289 1.24582 2.21921 1.24582L34.6141 1.24582L34.6141 1.24574Z" fill="#414143"/>
<path d="M3.68848 0.623247L3.68848 20.5539C3.68848 20.8977 3.9635 21.1768 4.30234 21.1768L30.0857 21.1768C30.4245 21.1768 30.6995 20.8977 30.6995 20.5539L30.6995 0.623173C30.6995 0.279397 30.4245 0.000361108 30.0857 0.000361125L4.30234 0.000362367C3.9635 0.000362383 3.68848 0.279398 3.68848 0.623247ZM29.4718 1.24606L29.4718 19.9311L4.91628 19.9311L4.91628 1.24606L29.4718 1.24606Z" fill="#414143"/>
<path d="M9.87535 12.438C10.4066 12.438 10.9449 12.2756 11.2849 11.965L10.8883 11.3862C10.6687 11.598 10.2649 11.725 9.97452 11.725C9.39368 11.725 9.0466 11.365 8.98993 10.9344H11.5329V10.7368C11.5329 9.62149 10.8387 8.85914 9.81869 8.85914C8.77744 8.85914 8.04785 9.65678 8.04785 10.645C8.04785 11.7391 8.8341 12.438 9.87535 12.438ZM10.6616 10.3274H8.97577C9.01827 9.98855 9.2591 9.57208 9.81869 9.57208C10.4137 9.57208 10.6404 10.0027 10.6616 10.3274Z" fill="#414143"/>
<path d="M13.2097 12.3533V10.6803H14.4139C15.4339 10.6803 16.0006 9.98149 16.0006 9.16267C16.0006 8.33678 15.441 7.64502 14.4139 7.64502H12.2039V12.3533H13.2097ZM14.2793 9.79796H13.2097V8.52737H14.2793C14.676 8.52737 14.9735 8.76737 14.9735 9.16267C14.9735 9.5509 14.676 9.79796 14.2793 9.79796Z" fill="#414143"/>
<path d="M18.7561 12.438C20.1941 12.438 20.8882 11.6403 20.8882 10.4685V7.64502H19.8611V10.4403C19.8611 11.0968 19.4857 11.5485 18.7561 11.5485C18.0266 11.5485 17.6441 11.0968 17.6441 10.4403V7.64502H16.6241V10.4756C16.6241 11.6333 17.3182 12.438 18.7561 12.438Z" fill="#414143"/>
<path d="M24.3831 12.3533C25.2827 12.3533 25.7573 11.7885 25.7573 11.0827C25.7573 10.4897 25.3535 10.0027 24.8506 9.92502C25.2969 9.83326 25.6652 9.43796 25.6652 8.84502C25.6652 8.21678 25.2048 7.64502 24.3052 7.64502H21.819V12.3533H24.3831ZM24.0856 9.52973H22.8248V8.5062H24.0856C24.4256 8.5062 24.6381 8.72502 24.6381 9.02149C24.6381 9.31796 24.4256 9.52973 24.0856 9.52973ZM24.121 11.485H22.8248V10.3909H24.121C24.5177 10.3909 24.7302 10.645 24.7302 10.9415C24.7302 11.2803 24.5035 11.485 24.121 11.485Z" fill="#414143"/>
</svg>
