<svg width="32" height="29" viewBox="0 0 32 29" fill="none" xmlns="http://www.w3.org/2000/svg">
<path d="M29.7989 9.70022H26.641L22.2454 1.39773C22.0082 0.949758 21.4529 0.778853 21.0048 1.01603C20.5568 1.2532 20.3859 1.80869 20.6231 2.25666L24.5639 9.70022H7.28315L11.224 2.25666C11.4612 1.80869 11.2903 1.2532 10.8423 1.01603C10.3944 0.778914 9.83883 0.949758 9.60165 1.39773L5.20605 9.70022H2.05346C1.08671 9.70022 0.300171 10.4868 0.300171 11.4535V13.4924C0.300171 14.4185 1.02197 15.1787 1.93255 15.2411L5.01177 28.0431C5.11096 28.4556 5.47993 28.7463 5.90417 28.7463H25.9422C26.3662 28.7463 26.7351 28.4558 26.8344 28.0436L29.9209 15.2409C30.831 15.178 31.5522 14.4181 31.5522 13.4924V11.4535C31.5522 10.4868 30.7657 9.70022 29.7989 9.70022ZM2.13588 11.5359H29.7165V13.41H2.13588V11.5359ZM26.8474 20.1573H22.8287L23.442 15.2457H28.0314L26.8474 20.1573ZM16.8453 26.9106V21.9931H20.7496L20.1356 26.9106H16.8453ZM11.7191 26.9106L11.1046 21.9931H15.0096V26.9106H11.7191ZM3.82174 15.2457H8.4115L9.0253 20.1573H5.00314L3.82174 15.2457ZM10.2614 15.2457H15.0096V20.1573H10.8752L10.2614 15.2457ZM16.8453 20.1573V15.2457H21.592L20.9788 20.1573H16.8453ZM5.44463 21.9931H9.25464L9.86918 26.9106H6.62744L5.44463 21.9931ZM25.2193 26.9106H21.9855L22.5995 21.9931H26.4048L25.2193 26.9106Z" fill="#2D2D2D"/>
</svg>
