<svg width="37" height="37" viewBox="0 0 37 37" fill="none" xmlns="http://www.w3.org/2000/svg">
<path d="M12.5498 11V7.25C12.5498 6.25544 12.8571 5.30161 13.4041 4.59835C13.9511 3.89509 14.6929 3.5 15.4665 3.5H30.6331C31.4067 3.5 32.1486 3.89509 32.6955 4.59835C33.2425 5.30161 33.5498 6.25544 33.5498 7.25V29.75C33.5498 30.7446 33.2425 31.6984 32.6955 32.4017C32.1486 33.1049 31.4067 33.5 30.6331 33.5H15.4665C14.6929 33.5 13.9511 33.1049 13.4041 32.4017C12.8571 31.6984 12.5498 30.7446 12.5498 29.75V26" stroke="#2D2D2D" stroke-width="2" stroke-linecap="round" stroke-linejoin="round"/>
<path d="M19.6748 24.125L25.2998 18.5L19.6748 12.875M3.9248 18.5H24.1748" stroke="#2D2D2D" stroke-width="2" stroke-linecap="round" stroke-linejoin="round"/>
</svg>
